<?xml version="1.0" encoding="utf-8"?>
<svg viewBox="185.965 140.425 21.733 14.018" width="24px" height="24px" xmlns="http://www.w3.org/2000/svg">
  <path style="fill: transparent; stroke: transparent;" d="M 187.028 147.247 C 187.028 147.247 193.147 141.242 193.159 141.242 C 193.171 141.242 207.115 141.126 207.115 141.115 C 207.115 141.104 207.186 153.85 207.186 153.85 L 193.41 154.008 L 187.028 147.247 Z"/>
  <text x="196.524" y="150.639" style="font-size: 12px; text-transform: lowercase; white-space: pre;" transform="matrix(1.135898, 0, 0, 0.82908, -27.929785, 25.110628)">x</text>
  <path d="M 203.196 153.591 C 202.802 154.101 202.145 154.431 201.412 154.431 L 189.371 154.421 C 188.166 154.421 187.463 154.633 187.463 153.533 L 187.463 145.889 L 187.463 141.303 C 187.463 140.203 188.166 140.441 189.371 140.441 L 201.412 140.431 C 202.145 140.431 202.802 140.761 203.196 141.271 C 203.311 141.179 209.68 147.046 209.166 147.457 C 209.377 147.584 203.322 153.666 203.196 153.591 Z M 201.82 141.518 L 188.458 141.479 C 188.369 141.479 188.444 153.277 188.448 153.277 L 201.438 153.328 C 201.982 153.418 207.94 147.404 207.739 147.303 C 208.048 147.097 201.889 141.472 201.82 141.518 Z" style="background-color: red" transform="matrix(-1, 0, 0, -1, 395.16098, 294.862)"/>
</svg>
