<?xml version="1.0" encoding="UTF-8"?>
<svg width="175px" height="154px" viewBox="0 0 175 154" version="1.1" xmlns="http://www.w3.org/2000/svg" xmlns:xlink="http://www.w3.org/1999/xlink">
    <!-- Generator: Sketch 62 (91390) - https://sketch.com -->
    <title>Group 4</title>
    <desc>Created with Sketch.</desc>
    <g id="Brand" stroke="none" stroke-width="1" fill="none" fill-rule="evenodd">
        <g id="Logos-/-Wordmarks" transform="translate(-4609.000000, -740.000000)" fill="#9393a2">
            <g id="Group-2" transform="translate(4490.000000, 674.000000)">
                <g id="tri_logo_landscape_b+w" transform="translate(119.000000, 66.000000)">
                    <g id="Group-4" transform="translate(0.610000, 0.840000)">
                        <path d="M39.3,144.24 C39.3,144.24 42.12,149.04 44.93,150.67 C47.74,152.3 53.29,152.32 53.29,152.32 L131.91,152.32 C131.91,152.32 100.39,151.32 58.49,127.16 C16.59,103 3.83693077e-13,76.16 3.83693077e-13,76.16 L39.3,144.24 Z" id="Path"></path>
                        <path d="M171.23,84.24 C171.23,84.24 173.97,79.4 173.97,76.16 C173.97,72.92 171.23,68.09 171.23,68.09 L131.91,-2.84217094e-14 C131.91,-2.84217094e-14 146.83,27.83 146.83,76.16 C146.83,124.49 131.91,152.32 131.91,152.32 L171.23,84.24 Z" id="Path"></path>
                        <path d="M53.3,-1.42108547e-14 C53.3,-1.42108547e-14 47.74,-1.42108547e-14 44.93,1.66 C42.12,3.32 39.3,8.08 39.3,8.08 L3.83693077e-13,76.16 C3.83693077e-13,76.16 16.64,49.32 58.49,25.16 C100.34,1 131.91,-1.42108547e-14 131.91,-1.42108547e-14 L53.3,-1.42108547e-14 Z" id="Path"></path>
                    </g>
                </g>
            </g>
        </g>
    </g>
</svg>
