<?xml version="1.0" standalone="no"?>
<!DOCTYPE svg PUBLIC "-//W3C//DTD SVG 20010904//EN"
 "http://www.w3.org/TR/2001/REC-SVG-20010904/DTD/svg10.dtd">
<svg version="1.0" xmlns="http://www.w3.org/2000/svg" width="138.000000pt" height="121.000000pt" viewBox="0 0 138.000000 121.000000"
 preserveAspectRatio="xMidYMid meet">

<g transform="translate(0.000000,121.000000) scale(0.100000,-0.100000)"
fill="#000000" stroke="none">
<path d="M341 1173 c-39 -40 -151 -245 -151 -277 0 -15 11 -37 25 -51 48 -49
67 -42 418 161 177 102 324 188 326 190 2 2 -130 4 -293 4 l-298 0 -27 -27z"/>
<path d="M893 1107 c-78 -45 -142 -85 -143 -89 0 -13 285 -169 289 -157 10 32
60 72 103 83 l46 11 -67 114 c-36 63 -71 116 -76 117 -6 2 -74 -34 -152 -79z"/>
<path d="M1105 875 l-25 -24 0 -393 c1 -303 3 -388 12 -373 268 463 278 481
278 517 0 27 -17 66 -65 150 -36 62 -75 121 -86 131 -31 25 -85 22 -114 -8z"/>
<path d="M78 732 c-52 -90 -65 -119 -55 -128 13 -12 275 -164 283 -164 2 0 4
74 4 165 l0 165 -30 0 c-39 0 -82 22 -108 55 -11 14 -21 25 -23 25 -2 0 -34
-53 -71 -118z"/>
<path d="M56 510 c11 -19 78 -135 149 -258 94 -163 136 -227 156 -238 21 -10
66 -14 174 -14 142 0 147 1 170 25 33 32 34 93 3 122 -13 12 -153 96 -313 188
-160 92 -306 177 -325 188 l-35 21 21 -34z"/>
<path d="M883 268 l-141 -81 19 -36 c23 -43 24 -70 5 -116 l-15 -35 140 0 139
0 0 175 c0 96 -1 175 -3 175 -1 0 -66 -37 -144 -82z"/>
</g>
</svg>
